# xmcd CD database file
#
# Track frame offsets:
#	150
#	12642
#	29877
#	52255
#	76667
#	90630
#	101647
#	118957
#	141702
#	164240
#
# Disc length: 2655 seconds
#
# Revision: 0
# Processed by: cddbd v1.5.1PL0 Copyright (c) Steve Scherf et al.
# Submitted via: CDex 1.51
#
DISCID=9a0a5d0a
DTITLE=Bernie Larsen - Culture Vulture
DYEAR=1997
DGENRE=Blues
TTITLE0=She Fights
TTITLE1=For Someone
TTITLE2=Circumstantially You
TTITLE3=Where Do I Go Now
TTITLE4=Lipstick Woman
TTITLE5=The Truth
TTITLE6=For Someone(2)
TTITLE7=What Is Not (And What Is)
TTITLE8=Soul Desperate
TTITLE9=Doctor Doctor
EXTD=YEAR: 1997
EXTT0=
EXTT1=
EXTT2=
EXTT3=
EXTT4=
EXTT5=
EXTT6=
EXTT7=
EXTT8=
EXTT9=
PLAYORDER=
